<svg width="249" height="215" viewBox="0 0 249 215" fill="none" xmlns="http://www.w3.org/2000/svg">
<g id="dog" filter="url(#filter0_d)">
<path id="dogBody" d="M197.44 89.2783C175.14 77.8783 163.04 67.3783 156.54 59.1783C155.24 60.1783 154.04 60.7783 152.84 60.9783C145.04 62.3783 127.14 73.0783 98.3401 72.8783C69.5401 72.7783 63.3401 71.0783 60.3401 71.5783C57.3401 72.0783 57.8401 71.3783 57.1401 68.3783C56.5401 65.3783 56.5401 47.1783 61.8401 33.1783C67.1401 19.1783 80.4401 3.47826 76.6401 0.978263C72.8401 -1.52174 62.1401 11.7783 53.1401 24.2783C44.1401 36.7783 39.1401 59.2783 40.1401 67.0783C41.1401 74.8783 41.6401 95.0783 37.3401 97.8783C32.9401 100.678 27.4401 106.678 27.1401 110.178C26.8401 113.678 26.1401 137.078 24.3401 140.878C22.4401 144.678 21.4401 152.678 18.1401 152.678C14.8401 152.678 14.0401 159.078 13.3401 163.878C12.6401 168.678 7.94007 181.278 5.64007 187.478C3.34007 193.678 3.84008 203.178 4.84008 203.178C5.84008 203.178 11.7401 204.478 14.6401 204.978C17.5401 205.478 24.0401 204.978 23.8401 202.178C23.6401 199.378 18.6401 195.078 17.6401 193.878C16.6401 192.778 17.6401 180.578 18.6401 178.278C19.6401 175.978 22.9401 169.278 29.1401 165.978C35.3401 162.678 55.4401 146.978 59.1401 142.178C62.7401 137.378 63.6401 126.578 80.4401 129.378C97.2401 132.178 121.24 139.378 129.34 139.178C137.44 139.078 147.64 142.378 150.94 141.878C154.24 141.378 155.54 141.878 156.24 149.078C156.84 156.178 159.34 188.678 160.54 191.378C161.64 194.078 163.64 206.078 165.34 206.078C167.04 206.078 183.84 205.878 182.34 203.878C180.84 201.878 181.44 196.978 178.14 195.678C174.84 194.278 173.84 193.478 173.84 191.478C173.84 189.478 176.04 150.478 176.34 145.678C176.64 140.778 178.14 131.678 181.34 127.978C184.54 124.278 187.84 119.978 190.84 114.978C193.84 109.978 194.64 107.978 194.14 102.278C193.94 99.1783 195.64 93.8783 197.44 89.2783Z" fill="#010202"/>
<path id="dogHead" d="M243.94 43.2783C242.74 51.4783 239.14 52.6783 233.34 55.7783C227.44 58.8783 214.24 56.3783 212.14 58.4783C210.04 60.5783 202.54 78.4783 201.14 81.1783C179.04 69.7783 168.24 59.6783 162.94 52.6783C167.74 46.6783 171.94 39.3783 173.64 37.4783C176.74 33.4783 180.64 29.8783 185.44 25.1783C186.54 24.0783 193.74 16.9783 196.44 14.2783C197.14 13.5783 198.14 12.2783 199.04 10.7783C202.64 5.07826 211.74 -7.62174 212.44 6.27826C212.74 11.5783 213.34 15.9783 214.14 19.1783C214.34 19.8783 214.84 20.4783 215.44 20.7783C220.34 23.2783 225.14 31.1783 225.94 32.3783C226.74 33.5783 237.34 34.3783 241.44 35.3783C245.54 36.3783 245.14 34.8783 243.94 43.2783Z" fill="#010202"/>
</g>
<defs>
<filter id="filter0_d" x="-7.62939e-06" y="0" width="248.76" height="214.078" filterUnits="userSpaceOnUse" color-interpolation-filters="sRGB">
<feFlood flood-opacity="0" result="BackgroundImageFix"/>
<feColorMatrix in="SourceAlpha" type="matrix" values="0 0 0 0 0 0 0 0 0 0 0 0 0 0 0 0 0 0 127 0"/>
<feOffset dy="4"/>
<feGaussianBlur stdDeviation="2"/>
<feColorMatrix type="matrix" values="0 0 0 0 0 0 0 0 0 0 0 0 0 0 0 0 0 0 0.25 0"/>
<feBlend mode="normal" in2="BackgroundImageFix" result="effect1_dropShadow"/>
<feBlend mode="normal" in="SourceGraphic" in2="effect1_dropShadow" result="shape"/>
</filter>
</defs>
</svg>
